<svg 
 xmlns="http://www.w3.org/2000/svg"
 xmlns:xlink="http://www.w3.org/1999/xlink"
 width="16px" height="16px">
<path fill-rule="evenodd"  fill="rgb(255, 255, 255)"
 d="M8.515,0.319 C8.057,-0.098 7.359,-0.098 6.901,0.319 L0.373,6.535 C0.130,6.760 0.112,7.138 0.333,7.385 C0.555,7.631 0.932,7.652 1.180,7.432 L1.283,7.334 L1.283,13.822 C1.283,14.143 1.410,14.450 1.636,14.677 C1.862,14.904 2.168,15.031 2.488,15.031 L5.993,15.031 L5.993,11.395 C5.992,11.169 6.082,10.952 6.241,10.793 C6.400,10.633 6.616,10.543 6.841,10.543 L8.490,10.543 C8.715,10.543 8.931,10.633 9.090,10.793 C9.249,10.952 9.339,11.169 9.338,11.395 L9.338,15.031 L12.926,15.031 C13.246,15.032 13.553,14.904 13.779,14.677 C14.005,14.450 14.132,14.143 14.131,13.822 L14.131,7.413 C14.399,7.656 14.778,7.637 15.001,7.389 C15.108,7.270 15.163,7.113 15.155,6.953 C15.147,6.793 15.076,6.643 14.957,6.535 L8.515,0.319 L8.515,0.319 Z"/>
</svg>