<?xml version="1.0" standalone="no"?><!DOCTYPE svg PUBLIC "-//W3C//DTD SVG 1.1//EN" "http://www.w3.org/Graphics/SVG/1.1/DTD/svg11.dtd"><svg t="1600412335649" class="icon" viewBox="0 0 1024 1024" version="1.1" xmlns="http://www.w3.org/2000/svg" p-id="870" xmlns:xlink="http://www.w3.org/1999/xlink" width="200" height="200"><defs><style type="text/css"></style></defs><path d="M484.38361505 539.61638495v331.40179754a82.85044939 82.85044939 0 0 1-82.85044938 82.85044937h-248.55134816a82.85044939 82.85044939 0 0 1-82.85044937-82.85044937v-248.55134816a82.85044939 82.85044939 0 0 1 82.85044937-82.85044938h331.40179754z m386.63456744 0a82.85044939 82.85044939 0 0 1 82.85044937 82.85044938v248.55134816a82.85044939 82.85044939 0 0 1-82.85044937 82.85044937h-248.55134816a82.85044939 82.85044939 0 0 1-82.85044938-82.85044937v-331.40179754h331.40179754z m-469.48501682 82.85044938h-248.55134816v248.55134816h248.55134816v-248.55134816z m469.48501682 0h-248.55134816v248.55134816h248.55134816v-248.55134816zM401.53316567 70.13136814a82.85044939 82.85044939 0 0 1 82.85044938 82.85044937v331.40179754h-331.40179754a82.85044939 82.85044939 0 0 1-82.85044937-82.85044938v-248.55134816a82.85044939 82.85044939 0 0 1 82.85044937-82.85044937h248.55134816z m345.20934274 0a207.12612347 207.12612347 0 1 1 0 414.25224691 207.12612347 207.12612347 0 0 1 0-414.25224691z m-345.20934274 82.85044937h-248.55134816v248.55134816h248.55134816v-248.55134816z m345.20934274 0a124.27567408 124.27567408 0 1 0 0 248.55134816 124.27567408 124.27567408 0 0 0 0-248.55134816z" fill="#1296DB" p-id="871"></path></svg>